<?xml version="1.0" encoding="utf-8"?>
<!-- Generator: Adobe Illustrator 24.0.2, SVG Export Plug-In . SVG Version: 6.00 Build 0)  -->
<svg version="1.1" id="Layer_1" xmlns="http://www.w3.org/2000/svg" xmlns:xlink="http://www.w3.org/1999/xlink" x="0px" y="0px"
	 viewBox="0 0 512 512" style="enable-background:new 0 0 512 512;" xml:space="preserve">
<style type="text/css">
	.st0{fill:#1386B3;}
</style>
<g>
	<path class="st0" d="M446,40h-46V16c0-8.84-7.16-16-16-16s-16,7.16-16,16v24H144V16c0-8.84-7.16-16-16-16s-16,7.16-16,16v24H66
		C29.61,40,0,69.61,0,106v340c0,36.39,29.61,66,66,66h380c36.39,0,66-29.61,66-66V106C512,69.61,482.39,40,446,40z M66,72h46v16
		c0,8.84,7.16,16,16,16s16-7.16,16-16V72h224v16c0,8.84,7.16,16,16,16s16-7.16,16-16V72h46c18.75,0,34,15.25,34,34v38H32v-38
		C32,87.25,47.25,72,66,72z M446,480H66c-18.75,0-34-15.25-34-34V176h448v270C480,464.75,464.75,480,446,480z"/>
</g>
</svg>
