<?xml version="1.0" encoding="utf-8"?>
<!-- Generator: Adobe Illustrator 24.0.2, SVG Export Plug-In . SVG Version: 6.00 Build 0)  -->
<svg version="1.1" id="Layer_1" xmlns="http://www.w3.org/2000/svg" xmlns:xlink="http://www.w3.org/1999/xlink" x="0px" y="0px"
	 viewBox="0 0 512 512" style="enable-background:new 0 0 512 512;" xml:space="preserve">
<style type="text/css">
	.st0{fill:#1386B3;}
</style>
<g>
	<g>
		<path class="st0" d="M403.92,0v31.35h35.36L370.3,96.76c-24.42-24.99-58.47-40.53-96.09-40.53c-50.6,0-94.76,28.11-117.69,69.54
			c-1.96-0.09-3.94-0.14-5.92-0.14c-74.12,0-134.42,60.3-134.42,134.42c0,68.82,51.98,125.71,118.74,133.5v41.66H88v31.35h46.93V512
			h31.35v-45.46h48.98V435.2h-48.98v-41.66c43.95-5.13,81.49-31.53,102.01-68.62c1.96,0.09,3.94,0.14,5.92,0.14
			c74.12,0,134.42-60.3,134.42-134.42c0-25.19-6.97-48.77-19.07-68.94l74.92-71.04v38.93h31.35V0H403.92z M150.6,363.11
			c-56.83,0-103.07-46.24-103.07-103.07c0-54.62,42.71-99.44,96.48-102.85c-2.75,10.7-4.21,21.91-4.21,33.46
			c0,60.46,40.13,111.73,95.16,128.56C216.28,345.74,185.43,363.11,150.6,363.11z M249.04,290.6
			c-44.71-11.26-77.91-51.8-77.91-99.96c0-10.64,1.62-20.9,4.62-30.56c44.71,11.26,77.91,51.8,77.91,99.96
			C253.67,270.68,252.05,280.94,249.04,290.6z M280.8,293.49c2.75-10.7,4.21-21.91,4.21-33.46c0-60.46-40.13-111.73-95.16-128.56
			c18.67-26.53,49.52-43.9,84.35-43.9c56.83,0,103.07,46.24,103.07,103.07C377.28,245.26,334.57,290.08,280.8,293.49z"/>
	</g>
</g>
</svg>
