<?xml version="1.0" encoding="utf-8"?>
<!-- Generator: Adobe Illustrator 24.0.2, SVG Export Plug-In . SVG Version: 6.00 Build 0)  -->
<svg version="1.1" id="Layer_1" xmlns="http://www.w3.org/2000/svg" xmlns:xlink="http://www.w3.org/1999/xlink" x="0px" y="0px"
	 viewBox="0 0 512 512" style="enable-background:new 0 0 512 512;" xml:space="preserve">
<style type="text/css">
	.st0{fill:#1386B3;}
</style>
<g>
	<g>
		<path class="st0" d="M444.4,176.99c-4.55-27.98-21.24-63.04-73.29-78.86V70c0-38.6-31.4-70-70-70H135.99c-38.6,0-70,31.4-70,70v60
			c0,23.65,0,79.05,5.53,134.17c6.3,62.85,18.14,110.08,35.2,140.48V482c0,16.54,13.46,30,30,30h163.65c16.54,0,30-13.46,30-30
			v-74.38c26.6-17.16,56.74-52.33,79.88-93.53C426.6,284.98,452.77,228.46,444.4,176.99L444.4,176.99z M135.99,20H301.1
			c27.57,0,50,22.43,50,50v23.4c-18.36-3.02-35.24-0.57-48.97,7.18c-13.75,7.76-23.2,20.2-26.59,35.03
			c-3.89,16.97,0.56,34.7,12.53,49.91c7.31,9.29,17.22,17.29,29.32,23.78C297.26,229.18,270.6,240,241.1,240h-45.11
			c-60.65,0-110-49.35-110-110V70h49.29c5.52,0,10-4.48,10-10s-4.48-10-10-10h-45.1C97.91,32.36,115.53,20,135.99,20L135.99,20z
			 M300.37,492H136.72c-5.51,0-10-4.49-10-10v-80c0-5.51,4.49-10,10-10h163.65c5.51,0,10,4.49,10,10v0.19v0.01V412h0H198.18
			c-5.52,0-10,4.48-10,10v40c0,5.52,4.48,10,10,10h112.19h0v10C310.37,487.51,305.89,492,300.37,492L300.37,492z M310.37,452H208.18
			v-20h102.19h0V452z M325.95,386.35c-5.28-8.6-14.77-14.35-25.58-14.35H136.72c-7.66,0-14.66,2.89-19.97,7.64
			c-20.24-47.85-27.16-121.05-29.53-178.52C110.47,236.55,150.54,260,195.99,260h45.11c37.64,0,71.41-14.95,95.82-42.23
			c3.85,1.34,7.83,2.57,11.97,3.65c5.34,1.4,10.81-1.79,12.22-7.13c1.4-5.34-1.79-10.81-7.13-12.22
			c-22.63-5.95-39.98-15.96-50.19-28.93c-8.16-10.37-11.27-22.11-8.76-33.08c3.94-17.2,22.91-32.83,55.24-26.51
			c43.54,8.51,68.57,30.94,74.38,66.64C435.83,248.85,374.52,350.03,325.95,386.35L325.95,386.35z"/>
		<path class="st0" d="M267.8,286.77c-2.89-4.71-9.05-6.18-13.75-3.29l-35.5,21.79l-35.5-21.79c-4.71-2.89-10.86-1.42-13.75,3.29
			s-1.42,10.86,3.29,13.75L199.43,317l-26.85,16.48c-4.71,2.89-6.18,9.05-3.29,13.75c1.89,3.08,5.17,4.77,8.53,4.77
			c1.78,0,3.59-0.48,5.22-1.48l35.5-21.79l35.5,21.79c1.63,1,3.44,1.48,5.22,1.48c3.36,0,6.64-1.7,8.53-4.77
			c2.89-4.71,1.42-10.86-3.29-13.75L237.66,317l26.85-16.48C269.21,297.63,270.69,291.47,267.8,286.77z"/>
		<path class="st0" d="M180.27,70L180.27,70c5.53,0,10-4.48,10-10s-4.48-10-10-10s-10,4.48-10,10S174.75,70,180.27,70z"/>
	</g>
</g>
</svg>
