<?xml version="1.0" encoding="utf-8"?>
<!-- Generator: Adobe Illustrator 24.0.2, SVG Export Plug-In . SVG Version: 6.00 Build 0)  -->
<svg version="1.1" id="Capa_1" xmlns="http://www.w3.org/2000/svg" xmlns:xlink="http://www.w3.org/1999/xlink" x="0px" y="0px"
	 viewBox="0 0 512 512" style="enable-background:new 0 0 512 512;" xml:space="preserve">
<style type="text/css">
	.st0{fill:#1386B3;}
</style>
<g>
	<g>
		<g>
			<path class="st0" d="M486.4,59.73H25.6C11.46,59.73,0,71.19,0,85.33v341.33c0,14.14,11.46,25.6,25.6,25.6h460.8
				c14.14,0,25.6-11.46,25.6-25.6V85.33C512,71.19,500.54,59.73,486.4,59.73z M494.93,426.67c0,4.71-3.82,8.53-8.53,8.53H25.6
				c-4.71,0-8.53-3.82-8.53-8.53V85.33c0-4.71,3.82-8.53,8.53-8.53h460.8c4.71,0,8.53,3.82,8.53,8.53L494.93,426.67L494.93,426.67z"
				/>
			<path class="st0" d="M470.08,93.9c-2.26-0.2-4.5,0.51-6.23,1.97L266.98,261.24c-6.35,5.34-15.62,5.34-21.96,0L48.15,95.86
				c-2.33-1.96-5.54-2.53-8.4-1.48c-2.87,1.04-4.96,3.53-5.49,6.54s0.58,6.06,2.92,8.02L234.04,274.3
				c12.69,10.68,31.22,10.68,43.91,0l196.86-165.37c1.73-1.46,2.82-3.54,3.02-5.79c0.2-2.25-0.51-4.5-1.97-6.23
				C474.42,95.18,472.33,94.1,470.08,93.9z"/>
			<path class="st0" d="M164.12,273.13c-3.02-0.67-6.17,0.34-8.23,2.65l-119.47,128c-2.16,2.21-2.96,5.43-2.07,8.39
				c0.88,2.97,3.3,5.22,6.32,5.9c3.02,0.67,6.17-0.34,8.23-2.65l119.47-128c2.16-2.21,2.96-5.43,2.07-8.39
				S167.15,273.8,164.12,273.13z"/>
			<path class="st0" d="M356.11,275.78c-2.06-2.31-5.21-3.32-8.23-2.65s-5.44,2.93-6.32,5.9c-0.88,2.97-0.09,6.18,2.07,8.39
				l119.47,128c3.24,3.32,8.54,3.44,11.93,0.28c3.39-3.16,3.64-8.46,0.55-11.92L356.11,275.78z"/>
		</g>
	</g>
</g>
</svg>
