<?xml version="1.0" encoding="utf-8"?>
<!-- Generator: Adobe Illustrator 24.0.2, SVG Export Plug-In . SVG Version: 6.00 Build 0)  -->
<svg version="1.1" id="Layer_1" xmlns="http://www.w3.org/2000/svg" xmlns:xlink="http://www.w3.org/1999/xlink" x="0px" y="0px"
	 viewBox="0 0 605 605" style="enable-background:new 0 0 605 605;" xml:space="preserve">
<style type="text/css">
	.st0{fill:#1386B3;}
</style>
<path class="st0" d="M297.92,320.07c35.67,0,64.59-28.92,64.59-64.59c0-35.67-28.91-64.59-64.59-64.59
	c-35.68,0-64.59,28.92-64.59,64.59C233.37,291.14,262.26,320.03,297.92,320.07z M297.92,216.01c21.87,0,39.6,17.73,39.6,39.6
	c0,21.87-17.73,39.6-39.6,39.6c-21.87,0-39.6-17.73-39.6-39.6C258.32,233.74,276.05,216.01,297.92,216.01z"/>
<path class="st0" d="M297.92,343.94c-26.43-0.2-51.79,10.41-70.21,29.36c-18.74,19.11-28.98,45.1-28.98,73.33
	c0.02,6.89,5.6,12.47,12.49,12.49h173.4c6.89-0.02,12.47-5.6,12.49-12.49c0-28.23-10.24-54.22-28.98-73.33
	C349.71,354.35,324.34,343.74,297.92,343.94z M224.59,434.14c2.14-16.33,9.5-31.54,20.99-43.35c13.82-13.99,32.68-21.86,52.35-21.86
	c19.66,0,38.52,7.87,52.34,21.86c11.46,11.83,18.82,27.02,20.99,43.35H224.59z"/>
<path class="st0" d="M447.84,18.99H148c-34.49,0.02-62.45,27.97-62.47,62.47v442.26c0.01,34.49,27.97,62.45,62.47,62.47h299.83
	c34.49-0.02,62.45-27.97,62.47-62.47V81.46C510.29,46.96,482.33,19.01,447.84,18.99z M485.32,523.71
	c-0.06,20.67-16.81,37.42-37.48,37.48H148c-20.67-0.06-37.42-16.81-37.48-37.48V81.46c0.06-20.67,16.81-37.42,37.48-37.48h299.83
	c20.67,0.06,37.42,16.81,37.48,37.48V523.71z"/>
<path class="st0" d="M245.82,102.82h99.94c6.9,0,12.49-5.59,12.49-12.49c0-6.9-5.59-12.49-12.49-12.49h-99.94
	c-6.9,0-12.49,5.59-12.49,12.49C233.33,97.22,238.92,102.82,245.82,102.82z"/>
</svg>
