<?xml version="1.0" encoding="utf-8"?>
<!-- Generator: Adobe Illustrator 24.0.2, SVG Export Plug-In . SVG Version: 6.00 Build 0)  -->
<svg version="1.1" id="Layer_1" xmlns="http://www.w3.org/2000/svg" xmlns:xlink="http://www.w3.org/1999/xlink" x="0px" y="0px"
	 viewBox="0 0 640 640" style="enable-background:new 0 0 640 640;" xml:space="preserve">
<style type="text/css">
	.st0{fill:#1386B3;}
</style>
<path class="st0" d="M199.25,310c35.69,0,64.62-28.94,64.62-64.62c0-35.69-28.93-64.62-64.62-64.62s-64.62,28.93-64.62,64.62
	C134.67,281.05,163.58,309.95,199.25,310z M199.25,205.88c21.88,0,39.62,17.74,39.62,39.62c0,21.88-17.74,39.62-39.62,39.62
	c-21.89,0-39.62-17.74-39.62-39.62C159.63,223.62,177.37,205.88,199.25,205.88z"/>
<path class="st0" d="M199.25,333.88c-26.44-0.2-51.82,10.42-70.25,29.38c-18.75,19.12-29,45.12-29,73.38
	c0.02,6.89,5.61,12.48,12.5,12.5H286c6.89-0.02,12.48-5.61,12.5-12.5c0-28.25-10.25-54.25-29-73.38
	C251.07,344.29,225.7,333.68,199.25,333.88z M125.88,424.12c2.14-16.34,9.51-31.55,21-43.38c13.83-14,32.7-21.88,52.38-21.88
	s38.54,7.88,52.38,21.88c11.47,11.83,18.84,27.04,21,43.38H125.88z"/>
<path class="st0" d="M557.5,93.75h-475c-34.51,0.02-62.48,27.99-62.5,62.5v317.5c0.02,34.51,27.99,62.48,62.5,62.5h475
	c34.51-0.02,62.48-27.99,62.5-62.5v-317.5C619.98,121.74,592.01,93.77,557.5,93.75z M595,473.75c-0.06,20.68-16.82,37.44-37.5,37.5
	h-475c-20.68-0.06-37.44-16.82-37.5-37.5v-317.5c0.06-20.68,16.82-37.44,37.5-37.5h475c20.68,0.06,37.44,16.82,37.5,37.5V473.75z"/>
<path class="st0" d="M526.75,302.5H381.12c-6.9,0-12.5,5.59-12.5,12.5s5.6,12.5,12.5,12.5h145.62c6.9,0,12.5-5.59,12.5-12.5
	S533.65,302.5,526.75,302.5z"/>
<path class="st0" d="M526.75,382.5H381.12c-6.9,0-12.5,5.59-12.5,12.5s5.6,12.5,12.5,12.5h145.62c6.9,0,12.5-5.59,12.5-12.5
	S533.65,382.5,526.75,382.5z"/>
<path class="st0" d="M526.75,222.5H381.12c-6.9,0-12.5,5.59-12.5,12.5s5.6,12.5,12.5,12.5h145.62c6.9,0,12.5-5.59,12.5-12.5
	S533.65,222.5,526.75,222.5z"/>
</svg>
