<?xml version="1.0" encoding="utf-8"?>
<!-- Generator: Adobe Illustrator 24.0.2, SVG Export Plug-In . SVG Version: 6.00 Build 0)  -->
<svg version="1.1" id="Capa_1" xmlns="http://www.w3.org/2000/svg" xmlns:xlink="http://www.w3.org/1999/xlink" x="0px" y="0px"
	 viewBox="0 0 512 512" style="enable-background:new 0 0 512 512;" xml:space="preserve">
<style type="text/css">
	.st0{fill:#1386B3;}
</style>
<g>
	<g>
		<path class="st0" d="M298.67,25.6h-85.33c-4.71,0-8.53,3.82-8.53,8.53s3.82,8.53,8.53,8.53h85.33c4.71,0,8.53-3.82,8.53-8.53
			C307.2,29.42,303.38,25.6,298.67,25.6z"/>
	</g>
</g>
<g>
	<g>
		<path class="st0" d="M358.4,25.6h-8.53c-4.71,0-8.53,3.82-8.53,8.53s3.82,8.53,8.53,8.53h8.53c4.71,0,8.53-3.82,8.53-8.53
			C366.93,29.42,363.11,25.6,358.4,25.6z"/>
	</g>
</g>
<g>
	<g>
		<path class="st0" d="M266.6,435.2h-21.19c-12.98,0-23.54,10.56-23.54,23.54v4.12c0,12.98,10.56,23.54,23.54,23.54h21.19
			c12.98,0,23.54-10.56,23.54-23.54v-4.12C290.13,445.76,279.57,435.2,266.6,435.2z M273.07,462.86c0,3.57-2.9,6.47-6.47,6.47
			h-21.19c-3.57,0-6.48-2.9-6.48-6.47v-4.12c0-3.58,2.9-6.48,6.48-6.48h21.18c3.58,0,6.48,2.9,6.48,6.48V462.86z"/>
	</g>
</g>
<g>
	<g>
		<path class="st0" d="M370.23,0H141.78c-17.01,0-30.85,13.84-30.85,30.85v450.3c0,17.01,13.84,30.85,30.85,30.85h228.44
			c17.01,0,30.85-13.84,30.85-30.84V30.85C401.07,13.84,387.23,0,370.23,0z M384,481.15c0,7.6-6.18,13.78-13.77,13.78H141.78
			c-7.6,0-13.78-6.19-13.78-13.77V30.85c0-7.59,6.18-13.78,13.78-13.78h228.44c7.6,0,13.78,6.19,13.78,13.78L384,481.15L384,481.15z
			"/>
	</g>
</g>
<g>
	<g>
		<path class="st0" d="M392.53,51.2H119.47c-4.71,0-8.53,3.82-8.53,8.53v358.4c0,4.71,3.82,8.53,8.53,8.53h273.07
			c4.71,0,8.53-3.82,8.53-8.53V59.73C401.07,55.02,397.24,51.2,392.53,51.2z M384,409.6H128V68.27h256V409.6z"/>
	</g>
</g>
</svg>
