<?xml version="1.0" encoding="utf-8"?>
<!-- Generator: Adobe Illustrator 24.0.2, SVG Export Plug-In . SVG Version: 6.00 Build 0)  -->
<svg version="1.1" id="Layer_1" xmlns="http://www.w3.org/2000/svg" xmlns:xlink="http://www.w3.org/1999/xlink" x="0px" y="0px"
	 viewBox="0 0 895.71 171.69" style="enable-background:new 0 0 895.71 171.69;" xml:space="preserve">
<g>
	<path d="M575.21,23.08v2.79c174.09-0.2,298.67-0.75,298.67-1.39S749.3,23.29,575.21,23.08z"/>
	<path d="M313.73,23.08v2.79c-174.08-0.2-298.67-0.75-298.67-1.39S139.65,23.29,313.73,23.08z"/>
	<path d="M573.72,23.09c0,0.39,0.01,0.77,0.01,1.16c0,71.25-57.97,129.22-129.22,129.22S315.29,95.49,315.29,24.24
		c0-0.39,0.01-0.77,0.01-1.16h-3c0,0.39-0.01,0.77-0.01,1.16c0,72.91,59.31,132.22,132.22,132.22S576.73,97.15,576.73,24.24
		c0-0.39-0.01-0.77-0.01-1.16H573.72z"/>
</g>
</svg>
