<?xml version="1.0" encoding="utf-8"?>
<!-- Generator: Adobe Illustrator 24.0.2, SVG Export Plug-In . SVG Version: 6.00 Build 0)  -->
<svg version="1.1" id="_x33_0" xmlns="http://www.w3.org/2000/svg" xmlns:xlink="http://www.w3.org/1999/xlink" x="0px" y="0px"
	 viewBox="0 0 512 512" style="enable-background:new 0 0 512 512;" xml:space="preserve">
<style type="text/css">
	.st0{fill:#1386B3;}
</style>
<g>
	<path class="st0" d="M152,248c-61.76,0-112,50.24-112,112s50.24,112,112,112s112-50.24,112-112S213.76,248,152,248z M152,456
		c-52.94,0-96-43.06-96-96s43.06-96,96-96s96,43.06,96,96S204.94,456,152,456z"/>
	<path class="st0" d="M152,296c-35.29,0-64,28.71-64,64s28.71,64,64,64s64-28.71,64-64S187.29,296,152,296z M152,408
		c-26.47,0-48-21.53-48-48s21.53-48,48-48s48,21.53,48,48S178.47,408,152,408z"/>
	<path class="st0" d="M496,372.69L475.31,352L488,339.31c5.16-5.16,8-12.02,8-19.31s-2.84-14.16-8-19.31L475.31,288l4.69-4.69
		c5.16-5.16,8-12.02,8-19.31s-2.84-14.16-8-19.31L459.31,224c-10.31-10.32-28.31-10.32-38.62,0L384,260.69L251.31,128L288,91.31
		c5.16-5.15,8-12.02,8-19.31s-2.84-14.16-8-19.31L267.31,32C257,21.68,239,21.68,228.69,32L224,36.69L211.31,24
		C201,13.68,183,13.68,172.69,24L160,36.69L139.31,16C129,5.68,111,5.68,100.69,16L64,52.69C58.84,57.84,56,64.7,56,72
		s2.84,14.16,8,19.31L84.69,112L72,124.69c-5.16,5.15-8,12.02-8,19.31s2.84,14.16,8,19.31L84.69,176L80,180.69
		c-5.16,5.15-8,12.02-8,19.31s2.84,14.16,8,19.31l10.62,10.62C41.87,253.03,8,302.57,8,360c0,79.4,64.6,144,144,144
		c57.43,0,106.97-33.87,130.07-82.62L292.69,432c5.16,5.16,12.02,8,19.31,8s14.16-2.84,19.31-8l4.69-4.69L348.69,440
		c5.16,5.16,12.02,8,19.31,8s14.16-2.84,19.31-8L400,427.31L420.69,448c5.16,5.16,12.02,8,19.31,8s14.16-2.84,19.31-8L496,411.31
		c5.16-5.16,8-12.02,8-19.31S501.16,377.84,496,372.69L496,372.69z M372.69,272L320,324.69l-63.83-63.83
		c-1.63-1.72-3.3-3.38-5.02-5.02L187.31,192L240,139.31L372.69,272z M295.46,349.23c-0.84-11.28-2.87-22.22-6.17-32.63l19.4,19.4
		L295.46,349.23z M176,203.31l19.4,19.4c-10.42-3.3-21.36-5.33-32.63-6.17L176,203.31z M75.31,80c-2.1-2.1-3.31-5.02-3.31-8
		s1.21-5.9,3.31-8L112,27.31c4.21-4.21,11.79-4.21,16,0L148.69,48L96,100.69L75.31,80z M83.31,152c-2.1-2.1-3.31-5.02-3.31-8
		s1.21-5.9,3.31-8L184,35.31c4.21-4.21,11.79-4.21,16,0L212.69,48L96,164.69L83.31,152z M91.31,208c-2.1-2.1-3.31-5.02-3.31-8
		s1.21-5.9,3.31-8L240,43.31c4.21-4.21,11.79-4.21,16,0L276.69,64c2.1,2.1,3.31,5.02,3.31,8s-1.21,5.9-3.31,8L140.08,216.6
		c-11.57,0.95-22.73,3.26-33.37,6.8L91.31,208z M152,488c-70.58,0-128-57.42-128-128s57.42-128,128-128
		c33.98,0,64.82,13.4,87.76,35.07l5.17,5.17C266.6,295.18,280,326.02,280,360C280,430.58,222.58,488,152,488z M304,420.69
		l-15.41-15.41c3.54-10.63,5.85-21.8,6.8-33.37L432,235.31c4.21-4.21,11.79-4.21,16,0L468.69,256c2.1,2.1,3.31,5.02,3.31,8
		s-1.21,5.9-3.31,8L320,420.69C315.79,424.9,308.21,424.9,304,420.69z M376,428.69c-4.21,4.21-11.79,4.21-16,0L347.31,416
		L464,299.31L476.69,312c2.1,2.1,3.31,5.02,3.31,8s-1.21,5.9-3.31,8L376,428.69z M484.69,400L448,436.69c-4.21,4.21-11.79,4.21-16,0
		L411.31,416L464,363.31L484.69,384c2.1,2.1,3.31,5.02,3.31,8S486.79,397.9,484.69,400z"/>
</g>
</svg>
